Coordinates
version=1
nRows=33
nColumns=30
inDegrees=yes

Units are S.I. units (second, meters, Newtons, ...)
Angles are in degrees.

endheader
time	floatyaw	floatroll	floatpitch	floatx	floaty	floatz	pro_sup_l	deviation_l	flexion_l	cmc_flexion_l	cmc_abduction_l	mp_flexion_l	ip_flexion_l	2mcp_flexion_l	2mcp_abduction_l	2pm_flexion_l	2md_flexion_l	3mcp_flexion_l	3mcp_abduction_l	3pm_flexion_l	3md_flexion_l	4mcp_flexion_l	4mcp_abduction_l	4pm_flexion_l	4md_flexion_l	5mcp_flexion_l	5mcp_abduction_l	5pm_flexion_l	5md_flexion_l
-0.495000	3.029614	-4.103828	101.268469	-0.102220	-0.208922	-0.043678	82.853018	2.581960	-0.588036	12.947837	1.832454	-23.864986	-36.537541	41.112682	7.458521	51.089512	33.713338	27.667310	4.957749	49.360799	30.918888	17.618464	-4.605423	62.871678	40.495511	11.084534	-8.451622	61.801822	40.485684
-0.485000	3.029614	-4.103828	101.268469	-0.102254	-0.208943	-0.043663	82.829847	2.563739	-0.597439	12.929543	1.792975	-23.854951	-36.529788	41.128421	7.429990	51.076390	33.699723	27.659219	4.960540	49.384011	30.927789	17.599209	-4.603753	62.872626	40.489071	11.042621	-8.418153	61.728417	40.445565
-0.475000	3.029614	-4.103828	101.268469	-0.102282	-0.208976	-0.043652	82.812185	2.551716	-0.616075	12.917554	1.770086	-23.839324	-36.520316	41.153234	7.404554	51.082392	33.696611	27.656127	4.954003	49.406867	30.937427	17.578031	-4.602643	62.873369	40.484464	10.992250	-8.372398	61.665875	40.414086
-0.465000	3.029614	-4.103828	101.268469	-0.102304	-0.209006	-0.043646	82.807074	2.548513	-0.636061	12.907562	1.771148	-23.819344	-36.509441	41.188662	7.383806	51.101027	33.699998	27.658237	4.938379	49.431861	30.949657	17.560444	-4.600400	62.876270	40.482754	10.940610	-8.313028	61.629083	40.397525
-0.455000	3.029614	-4.103828	101.268469	-0.102316	-0.209021	-0.043644	82.816597	2.553625	-0.649117	12.896967	1.797069	-23.796808	-36.497757	41.231858	7.369299	51.122604	33.704444	27.663652	4.919044	49.464318	30.967666	17.551370	-4.596135	62.888169	40.486628	10.901970	-8.248860	61.627843	40.398415
-0.445000	3.029614	-4.103828	101.268469	-0.102317	-0.209014	-0.043645	82.839077	2.564178	-0.649191	12.884642	1.841929	-23.774769	-36.486448	41.274501	7.361375	51.137319	33.705063	27.668284	4.904211	49.509024	30.994254	17.551905	-4.590591	62.914733	40.497974	10.889690	-8.194682	61.661323	40.414101
-0.435000	3.029614	-4.103828	101.268469	-0.102310	-0.208984	-0.043646	82.871645	2.575880	-0.633688	12.870537	1.894653	-23.757726	-36.477408	41.304763	7.358368	51.137771	33.698881	27.666810	4.900551	49.565406	31.029251	17.557976	-4.585979	62.954751	40.515546	10.906496	-8.162251	61.716084	40.437175
-0.425000	3.029614	-4.103828	101.268469	-0.102298	-0.208935	-0.043642	82.912003	2.583681	-0.602817	12.856010	1.941987	-23.750652	-36.472983	41.311670	7.356715	51.119806	33.684922	27.654234	4.909214	49.623538	31.067216	17.561488	-4.584876	62.998053	40.534275	10.938133	-8.151652	61.769608	40.457972
-0.415000	3.029614	-4.103828	101.268469	-0.102289	-0.208870	-0.043623	82.958051	2.581872	-0.557482	12.844688	1.972989	-23.756848	-36.475241	41.289577	7.352189	51.081948	33.663414	27.626799	4.924688	49.664538	31.097501	17.553303	-4.588791	63.028877	40.547048	10.955209	-8.149011	61.799181	40.468531
-0.405000	3.029614	-4.103828	101.268469	-0.102289	-0.208790	-0.043585	83.005830	2.563728	-0.496620	12.842196	1.985302	-23.775553	-36.484889	41.240539	7.342195	51.024867	33.635202	27.581378	4.937482	49.668031	31.108447	17.526609	-4.597188	63.034077	40.548688	10.925502	-8.133847	61.793134	40.466466
-0.395000	3.029614	-4.103828	101.268469	-0.102298	-0.208686	-0.043521	83.048277	2.521535	-0.414931	12.852969	1.991626	-23.800780	-36.500201	41.173822	7.328477	50.952468	33.602284	27.514257	4.939553	49.625849	31.095371	17.479268	-4.607512	63.013350	40.540792	10.834734	-8.094308	61.759124	40.456608
-0.385000	3.029614	-4.103828	101.268469	-0.102308	-0.208543	-0.043428	83.078241	2.448293	-0.301644	12.874469	2.022452	-23.822502	-36.516514	41.103191	7.318800	50.874756	33.569335	27.421764	4.929915	49.556455	31.069106	17.414397	-4.616201	62.987145	40.535212	10.708579	-8.043344	61.724179	40.448786
-0.375000	3.029614	-4.103828	101.268469	-0.102296	-0.208333	-0.043304	83.097704	2.341542	-0.140310	12.892310	2.120665	-23.830193	-36.526776	41.042502	7.325488	50.810050	33.544790	27.304605	4.917627	49.511355	31.059817	17.339404	-4.620170	62.997303	40.553664	10.624369	-8.026042	61.724052	40.451847
-0.365000	3.029614	-4.103828	101.268469	-0.102218	-0.208015	-0.043140	83.130801	2.207551	0.091115	12.881663	2.326643	-23.817239	-36.523282	40.999217	7.359563	50.782266	33.539334	27.174375	4.920201	49.564976	31.111104	17.264172	-4.618115	63.096647	40.621549	10.701025	-8.110266	61.784258	40.466131
-0.355000	3.029614	-4.103828	101.268469	-0.102019	-0.207526	-0.042917	83.233123	2.062295	0.420482	12.818750	2.658499	-23.783584	-36.500077	40.965917	7.422077	50.810788	33.560902	27.056932	4.957059	49.785064	31.262775	17.198816	-4.611242	63.327368	40.756200	11.062625	-8.359908	61.900513	40.478270
-0.345000	3.029614	-4.103828	101.268469	-0.101628	-0.206785	-0.042603	83.487851	1.926170	0.881228	12.701203	3.097098	-23.734138	-36.454908	40.912555	7.497166	50.896197	33.608117	26.987201	5.039638	50.191144	31.526869	17.151073	-4.603080	63.693841	40.952975	11.784021	-8.799615	62.029674	40.462391
-0.335000	3.029614	-4.103828	101.268469	-0.100976	-0.205696	-0.042146	83.983540	1.813222	1.509306	12.569218	3.585157	-23.672472	-36.389628	40.785003	7.551778	51.010698	33.666681	26.995143	5.161763	50.719489	31.867605	17.123648	-4.598065	64.140958	41.175441	12.840326	-9.386720	62.100309	40.389624
-0.325000	3.029614	-4.103828	101.268469	-0.099987	-0.204168	-0.041477	84.777737	1.720681	2.334815	12.514662	4.043432	-23.592561	-36.308545	40.514455	7.544189	51.102143	33.712651	27.089735	5.295130	51.216980	32.197842	17.112353	-4.599190	64.551170	41.356655	14.087966	-10.006198	62.041964	40.242744
-0.315000	3.029614	-4.103828	101.268469	-0.098587	-0.202128	-0.040521	85.860231	1.627183	3.368203	12.666673	4.398870	-23.473772	-36.215199	40.036496	7.438773	51.113435	33.722771	27.250799	5.394175	51.477527	32.399665	17.105962	-4.606099	64.769589	41.415655	15.297391	-10.497491	61.817951	40.026994
-0.305000	3.029614	-4.103828	101.268469	-0.096685	-0.199540	-0.039198	87.134056	1.505621	4.584047	13.151644	4.614242	-23.284102	-36.108983	39.311894	7.220098	51.009368	33.687252	27.434418	5.411283	51.314764	32.365523	17.088099	-4.615030	64.655179	41.286458	16.235187	-10.708950	61.439152	39.767179
-0.295000	3.029614	-4.103828	101.268469	-0.094176	-0.196409	-0.037445	88.428663	1.349678	5.907344	14.039708	4.708660	-22.993296	-35.983896	38.339281	6.898540	50.797219	33.618040	27.589033	5.317856	50.643020	32.044177	17.041338	-4.620539	64.140323	40.948288	16.763668	-10.559964	60.946108	39.488904
-0.285000	3.029614	-4.103828	101.268469	-0.090938	-0.192769	-0.035220	89.547680	1.204215	7.207817	15.301422	4.763097	-22.591975	-35.831546	37.154754	6.504572	50.529941	33.547323	27.672429	5.121750	49.528870	31.469743	16.953186	-4.617506	63.271251	40.441568	16.907365	-10.081177	60.370778	39.195109
-0.275000	3.029614	-4.103828	101.268469	-0.086849	-0.188678	-0.032513	90.336464	1.182328	8.307444	16.799093	4.910677	-22.107554	-35.648702	35.820508	6.076784	50.289561	33.515901	27.660320	4.870817	48.185780	30.757704	16.821156	-4.601993	62.208203	39.859977	16.846330	-9.409673	59.708599	38.856477
-0.265000	3.029614	-4.103828	101.268469	-0.081802	-0.184198	-0.029349	90.740715	1.451450	9.005315	18.324045	5.314046	-21.606156	-35.446077	34.408274	5.651860	50.157976	33.556344	27.544276	4.637895	46.909414	30.066793	16.651505	-4.570899	61.183073	39.321305	16.834753	-8.738187	58.926050	38.426740
-0.255000	3.029614	-4.103828	101.268469	-0.075731	-0.179386	-0.025775	90.827684	2.182247	9.120630	19.669414	6.132233	-21.174341	-35.252203	32.982270	5.259940	50.187419	33.678722	27.324042	4.492553	45.976869	29.541858	16.448860	-4.521526	60.429048	38.929206	17.084885	-8.241250	57.999900	37.875163
-0.245000	3.029614	-4.103828	101.268469	-0.068632	-0.174300	-0.021848	90.758775	3.475145	8.547748	20.708519	7.482144	-20.884890	-35.107502	31.584112	4.922108	50.381970	33.865619	27.001400	4.472573	45.547143	29.260922	16.202171	-4.451782	60.102659	38.738908	17.673301	-8.011418	56.956503	37.214079
-0.235000	3.029614	-4.103828	101.268469	-0.060574	-0.169001	-0.017626	90.726134	5.297555	7.307609	21.442347	9.406316	-20.761888	-35.049472	30.221607	4.646144	50.696816	34.079116	26.579844	4.568166	45.599052	29.206673	15.879254	-4.360545	60.219086	38.735982	18.510953	-8.031119	55.876993	36.501189
-0.225000	3.029614	-4.103828	101.268469	-0.051702	-0.163565	-0.013152	90.881800	7.466415	5.572976	21.991452	11.862198	-20.764240	-35.096448	28.863461	4.421833	51.056027	34.277348	26.069464	4.725483	45.930240	29.272244	15.439595	-4.247637	60.623065	38.833825	19.384151	-8.187799	54.858574	35.812798
-0.215000	3.029614	-4.103828	101.268469	-0.042219	-0.158099	-0.008461	91.289012	9.691853	3.649006	22.533540	14.740420	-20.798735	-35.239063	27.441032	4.221274	51.382725	34.433641	25.491759	4.867648	46.222445	29.299152	14.862965	-4.114046	61.017269	38.893572	20.042553	-8.323349	53.954238	35.202931
-0.205000	3.029614	-4.103828	101.268469	-0.032346	-0.152746	-0.003580	91.913710	11.668159	1.907925	23.215387	17.901785	-20.757876	-35.444118	25.857771	4.008045	51.629233	34.549088	24.877760	4.924696	46.156366	29.134954	14.177647	-3.963192	61.056390	38.765663	20.295951	-8.298755	53.130663	34.672453
-0.195000	3.029614	-4.103828	101.268469	-0.022276	-0.147683	0.001471	92.656499	13.174335	0.698803	24.081370	21.208544	-20.565006	-35.668816	24.009634	3.753657	51.793934	34.651939	24.257922	4.860085	45.537166	28.690582	13.467988	-3.802805	60.483793	38.343217	20.083198	-8.050880	52.276157	34.167559
-0.185000	3.029614	-4.103828	101.268469	-0.012139	-0.143118	0.006676	93.407825	14.141542	0.265525	25.052645	24.528055	-20.207434	-35.878947	21.822879	3.455264	51.918553	34.784012	23.651512	4.682585	44.379562	27.975884	12.852055	-3.645988	59.254013	37.608064	19.489344	-7.619716	51.262791	33.611820
-0.175000	3.029614	-4.103828	101.268469	-0.002015	-0.139279	0.012009	94.098288	14.661121	0.699166	25.964321	27.707356	-19.745725	-36.063636	19.311203	3.147435	52.069933	34.981388	23.067369	4.439193	42.914389	27.100976	12.440518	-3.510574	57.577471	36.649815	18.709912	-7.133963	50.034731	32.957817
